<?xml version="1.0" encoding="utf-8"?>
<!-- Generator: Adobe Illustrator 23.1.0, SVG Export Plug-In . SVG Version: 6.00 Build 0)  -->
<svg version="1.1" id="Layer_1" xmlns="http://www.w3.org/2000/svg" xmlns:xlink="http://www.w3.org/1999/xlink" x="0px" y="0px"
	 viewBox="0 0 900 900" style="enable-background:new 0 0 900 900;" xml:space="preserve">
<style type="text/css">
	.st0{fill-rule:evenodd;clip-rule:evenodd;fill:#333333;}
	.st1{fill:#FFFFFE;}
</style>
<g id="Layer_x0020_1">
	<circle class="st0" cx="450" cy="451" r="450"/>
	<path class="st1" d="M310.9,257.9c0-4.4-3.6-8-8-8c-4.4,0-8,3.6-8,8v32.7c0,91,43.7,112,80.6,129.8c19.2,9.2,36.3,17.5,41.3,35.4
		l0,0l0.1,0.3c2.2,9-10.4,14.7-27.7,22.7c-38.1,17.5-94.2,43.3-94.2,137.9v27.3c0,4.4,3.6,8,8,8c4.4,0,8-3.6,8-8v-27.3
		c0-84.4,50.5-107.6,84.9-123.4c24.5-11.3,42.3-19.5,36.6-41.2c0-0.2-0.1-0.4-0.1-0.6l0,0l0,0l0,0c-7-25-27.1-34.6-49.7-45.5
		c-32.8-15.8-71.5-34.4-71.5-115.4L310.9,257.9L310.9,257.9z M589.1,644.1c0,4.4,3.6,8,8,8s8-3.6,8-8v-27.3
		c0-94.6-56.1-120.4-94.2-137.9c-17.5-8-30.2-13.9-27.7-23l0,0c0-0.2,0.1-0.4,0.1-0.5c5.2-17.6,22.2-25.8,41.2-35
		c36.9-17.8,80.6-38.8,80.6-129.7v-32.7c0-4.4-3.6-8-8-8s-8,3.6-8,8v32.7c0,80.9-38.8,99.6-71.5,115.4
		c-22.4,10.8-42.4,20.4-49.6,44.9c-0.1,0.2-0.2,0.4-0.2,0.7l0,0l0,0c-6.2,22.2,11.7,30.5,36.4,41.8c34.3,15.8,84.9,39,84.9,123.4
		L589.1,644.1L589.1,644.1z"/>
	<path class="st1" d="M256.8,195h386.4c4.4,0,8,3.6,8,8v54.9c0,4.4-3.6,8-8,8H256.8c-4.4,0-8-3.6-8-8V203
		C248.8,198.6,252.4,195,256.8,195L256.8,195z M635.2,211H264.8v38.9h370.4V211z"/>
	<path class="st1" d="M264.8,691h370.4v-38.9H264.8L264.8,691L264.8,691z M643.2,707H256.8c-4.4,0-8-3.6-8-8v-54.9c0-4.4,3.6-8,8-8
		h386.4c4.4,0,8,3.6,8,8V699C651.2,703.4,647.6,707,643.2,707z"/>
</g>
</svg>
